<svg xmlns="http://www.w3.org/2000/svg" xmlns:xlink="http://www.w3.org/1999/xlink" width="500" zoomAndPan="magnify" viewBox="0 0 375 374.999991" height="500" preserveAspectRatio="xMidYMid meet" version="1.0"><defs><g/><clipPath id="bc9bbc1819"><path d="M 65 89 L 310.363281 89 L 310.363281 317.144531 L 65 317.144531 Z M 65 89 " clip-rule="nonzero"/></clipPath></defs><path fill="#e07c00" d="M 207.382812 62.726562 C 211.589844 65.875 217.347656 67.699219 224.253906 67.800781 L 224.625 67.800781 C 227.136719 67.808594 229.589844 67.4375 231.984375 66.6875 C 231.765625 64.886719 231.195312 63.207031 230.277344 61.644531 C 229.355469 60.082031 228.160156 58.769531 226.691406 57.710938 C 228.019531 52.378906 233.027344 49.238281 233.027344 49.238281 L 227.175781 33.746094 L 215.042969 45.054688 C 215.042969 45.054688 218.179688 50.117188 217 55.449219 C 215.964844 55.625 214.964844 55.917969 214 56.332031 C 213.035156 56.746094 212.132812 57.269531 211.296875 57.90625 C 210.460938 58.539062 209.710938 59.261719 209.046875 60.078125 C 208.386719 60.894531 207.832031 61.777344 207.382812 62.726562 Z M 207.382812 62.726562 " fill-opacity="1" fill-rule="nonzero"/><path fill="#e07c00" d="M 148.699219 57.6875 C 147.230469 58.75 146.035156 60.0625 145.117188 61.621094 C 144.195312 63.183594 143.625 64.863281 143.40625 66.664062 C 145.800781 67.414062 148.253906 67.785156 150.765625 67.777344 L 151.136719 67.777344 C 158.046875 67.675781 163.804688 65.851562 168.007812 62.703125 C 167.5625 61.75 167.007812 60.867188 166.347656 60.046875 C 165.683594 59.230469 164.933594 58.503906 164.097656 57.867188 C 163.257812 57.230469 162.355469 56.703125 161.390625 56.285156 C 160.425781 55.871094 159.421875 55.574219 158.386719 55.402344 C 157.207031 50.089844 160.34375 45.054688 160.34375 45.054688 L 148.21875 33.773438 L 142.359375 49.238281 C 142.359375 49.238281 147.394531 52.378906 148.699219 57.6875 Z M 148.699219 57.6875 " fill-opacity="1" fill-rule="nonzero"/><path fill="#0e00ad" d="M 173.84375 177.503906 C 172.730469 163.910156 180.546875 149.492188 180.546875 149.492188 C 180.546875 149.492188 176.878906 151.746094 172.675781 157.007812 C 162.382812 148.332031 151.257812 147.78125 151.257812 147.78125 C 154.628906 149.101562 157.410156 151.199219 159.601562 154.078125 C 159.601562 154.078125 147.132812 153.519531 140.039062 157.351562 C 150.246094 173.683594 170.511719 163.230469 170.511719 163.230469 C 171.203125 168.085938 172.3125 172.84375 173.84375 177.503906 Z M 173.84375 177.503906 " fill-opacity="1" fill-rule="nonzero"/><path fill="#0e00ad" d="M 187.691406 217.636719 C 187.691406 217.636719 177.097656 230.835938 162.703125 233.246094 C 181.613281 233.847656 187.691406 227.53125 187.691406 227.53125 C 187.691406 227.53125 193.765625 233.847656 212.691406 233.246094 C 198.292969 230.835938 187.691406 217.636719 187.691406 217.636719 Z M 187.691406 217.636719 " fill-opacity="1" fill-rule="nonzero"/><path fill="#0e00ad" d="M 215.808594 154.078125 C 218.003906 151.199219 220.785156 149.101562 224.152344 147.785156 C 224.152344 147.785156 213.03125 148.339844 202.722656 157.011719 C 198.511719 151.75 194.851562 149.5 194.851562 149.5 C 194.851562 149.5 202.640625 163.917969 201.527344 177.511719 C 203.058594 172.847656 204.171875 168.089844 204.863281 163.230469 C 204.863281 163.230469 225.132812 173.683594 235.339844 157.351562 C 228.28125 153.519531 215.808594 154.078125 215.808594 154.078125 Z M 215.808594 154.078125 " fill-opacity="1" fill-rule="nonzero"/><g clip-path="url(#bc9bbc1819)"><path fill="#0e00ad" d="M 310.34375 208.140625 C 298.707031 185.949219 296.855469 168.460938 298.148438 154.855469 C 299.445312 141.25 291.3125 124.730469 265.449219 122.136719 C 290.945312 123.109375 299.441406 106.914062 299.441406 106.914062 C 299.441406 106.914062 274.503906 113.511719 254.976562 89.585938 L 253.433594 93.949219 L 250.003906 93.988281 C 249.644531 93.988281 213.390625 94.644531 190.585938 111.296875 L 187.6875 113.410156 L 184.796875 111.296875 C 161.988281 94.644531 125.738281 94.003906 125.378906 94.003906 L 121.953125 93.957031 L 120.804688 90.726562 L 120.410156 89.613281 C 100.882812 113.53125 75.941406 106.941406 75.941406 106.941406 C 75.941406 106.941406 84.441406 123.140625 109.929688 122.164062 C 84.074219 124.757812 75.941406 141.277344 77.234375 154.882812 C 78.53125 168.488281 76.679688 185.976562 65.042969 208.171875 C 72.0625 202.175781 79.457031 190.027344 79.457031 190.027344 C 79.457031 190.027344 85.917969 229.386719 77.050781 261.289062 C 94.96875 249.609375 94.046875 232.460938 94.046875 232.460938 C 95.339844 257.40625 113.628906 282.832031 113.628906 282.832031 L 112.707031 271.660156 C 112.707031 271.660156 124.710938 296.132812 145.769531 315.875 C 128.960938 286.882812 125.824219 250.765625 125.824219 250.765625 C 125.824219 250.765625 124.15625 256.113281 125.082031 267.453125 C 90.351562 228.875 117.507812 187.574219 117.507812 187.574219 C 109.199219 231.625 134.875 253.003906 134.875 253.003906 C 134.875 253.003906 132.648438 244.417969 141.152344 227.898438 C 138.566406 269.523438 169.058594 307.101562 169.058594 307.101562 C 170.171875 297.707031 174.066406 282.628906 174.066406 282.628906 C 178.515625 296.070312 187.722656 317.285156 187.722656 317.285156 C 187.722656 317.285156 196.949219 296.070312 201.382812 282.628906 C 201.382812 282.628906 205.277344 297.691406 206.386719 307.101562 C 206.386719 307.101562 236.871094 269.523438 234.28125 227.898438 C 242.777344 244.417969 240.5625 253.003906 240.5625 253.003906 C 240.5625 253.003906 266.238281 231.625 257.929688 187.574219 C 257.929688 187.574219 285.082031 228.875 250.351562 267.421875 C 251.277344 256.085938 249.613281 250.734375 249.613281 250.734375 C 249.613281 250.734375 246.476562 286.847656 229.660156 315.839844 C 250.71875 296.082031 262.730469 271.625 262.730469 271.625 L 261.804688 282.800781 C 261.804688 282.800781 280.09375 257.375 281.390625 232.425781 C 281.390625 232.425781 280.46875 249.597656 298.382812 261.257812 C 289.515625 229.351562 295.980469 189.992188 295.980469 189.992188 C 295.980469 189.992188 303.328125 202.144531 310.34375 208.140625 Z M 128.03125 185.828125 C 108.679688 162.34375 114.871094 142.394531 114.871094 142.394531 C 114.871094 142.394531 98.929688 154.632812 97.6875 176.882812 C 88.011719 129.957031 135.308594 127.34375 135.308594 127.34375 C 107.316406 146.601562 128.03125 185.828125 128.03125 185.828125 Z M 214.246094 178.300781 C 214.246094 178.300781 213.429688 188.867188 223.253906 197.164062 C 233.074219 205.457031 217.523438 217.253906 201.386719 220.023438 C 220.078125 222.277344 225.371094 218.996094 225.792969 218.710938 C 225.464844 218.9375 218.847656 223.5 208.269531 224.996094 C 208.269531 224.996094 215.878906 225.878906 223.152344 223.8125 C 221.90625 225.699219 220.386719 227.328125 218.589844 228.699219 C 216.792969 230.070312 214.820312 231.105469 212.671875 231.808594 C 212.671875 231.808594 223.601562 248.3125 201.738281 263.792969 C 204.898438 253.128906 204.3125 248.824219 204.3125 248.824219 C 204.3125 248.824219 201.621094 260.207031 187.675781 267.375 C 173.730469 260.207031 171.046875 248.824219 171.046875 248.824219 C 171.046875 248.824219 170.488281 253.128906 173.613281 263.792969 C 151.753906 248.3125 162.683594 231.808594 162.683594 231.808594 C 160.535156 231.105469 158.566406 230.070312 156.769531 228.699219 C 154.972656 227.328125 153.449219 225.699219 152.207031 223.8125 C 159.480469 225.878906 167.089844 224.996094 167.089844 224.996094 C 156.523438 223.5 149.9375 218.972656 149.570312 218.710938 C 150.015625 219.015625 155.332031 222.269531 173.972656 220.023438 C 157.839844 217.242188 142.265625 205.46875 152.105469 197.164062 C 161.945312 188.859375 161.105469 178.300781 161.105469 178.300781 C 129.304688 186.8125 131.035156 157.496094 138.464844 156.953125 C 138 149.761719 140.996094 137.917969 168.285156 134.484375 C 154.753906 114.875 138.765625 120.871094 138.765625 120.871094 C 138.765625 120.871094 140.925781 105.042969 129.003906 104.832031 C 117.085938 104.621094 115.253906 113.804688 115.253906 113.804688 C 115.253906 91.695312 139 95.566406 142.867188 109.121094 C 173.058594 107.507812 187.691406 141.726562 187.691406 141.726562 C 187.691406 141.726562 202.332031 107.507812 232.523438 109.121094 C 236.386719 95.566406 260.136719 91.695312 260.136719 113.804688 C 260.136719 113.804688 258.289062 104.617188 246.371094 104.832031 C 234.449219 105.050781 236.609375 120.871094 236.609375 120.871094 C 236.609375 120.871094 220.617188 114.875 207.089844 134.484375 C 234.378906 137.917969 237.375 149.761719 236.910156 156.953125 C 244.339844 157.496094 246.070312 186.8125 214.265625 178.300781 Z M 277.703125 176.882812 C 276.460938 154.632812 260.515625 142.394531 260.515625 142.394531 C 260.515625 142.394531 266.710938 162.347656 247.359375 185.832031 C 247.359375 185.832031 268.101562 146.605469 240.085938 127.332031 C 240.085938 127.328125 287.375 129.941406 277.703125 176.882812 Z M 277.703125 176.882812 " fill-opacity="1" fill-rule="nonzero"/></g><path fill="#0e00ad" d="M 187.691406 196.351562 C 187.691406 196.351562 175.355469 197.695312 166.527344 188.695312 C 169.867188 204.828125 187.691406 211.414062 187.691406 211.414062 C 187.691406 211.414062 205.492188 204.847656 208.863281 188.695312 C 200.03125 197.707031 187.691406 196.351562 187.691406 196.351562 Z M 187.691406 196.351562 " fill-opacity="1" fill-rule="nonzero"/><path fill="#e07c00" d="M 251.492188 36.289062 C 254.128906 54.542969 241.59375 70.414062 224.238281 70.164062 C 209.058594 69.941406 197.40625 61.585938 197.40625 47.070312 C 197.40625 32.550781 206.203125 27.496094 206.203125 27.496094 L 187.691406 0 L 169.203125 27.496094 C 169.203125 27.496094 178.003906 32.550781 178.003906 47.070312 C 178.003906 61.585938 166.324219 69.941406 151.171875 70.164062 C 133.800781 70.414062 121.257812 54.542969 123.914062 36.289062 L 101.683594 21.777344 L 125.4375 89.082031 C 125.4375 89.082031 163.296875 89.519531 187.691406 107.335938 C 212.09375 89.535156 249.953125 89.082031 249.953125 89.082031 L 273.707031 21.777344 Z M 187.691406 87.953125 C 187.179688 87.953125 186.675781 87.902344 186.171875 87.800781 C 185.671875 87.703125 185.183594 87.554688 184.714844 87.359375 C 184.242188 87.164062 183.792969 86.921875 183.367188 86.640625 C 182.941406 86.355469 182.546875 86.03125 182.1875 85.671875 C 181.824219 85.308594 181.503906 84.914062 181.21875 84.492188 C 180.933594 84.066406 180.695312 83.617188 180.5 83.144531 C 180.304688 82.671875 180.15625 82.183594 180.054688 81.683594 C 179.957031 81.183594 179.90625 80.675781 179.90625 80.164062 C 179.90625 79.652344 179.957031 79.148438 180.054688 78.644531 C 180.15625 78.144531 180.304688 77.65625 180.5 77.183594 C 180.695312 76.710938 180.933594 76.261719 181.21875 75.839844 C 181.503906 75.414062 181.824219 75.019531 182.1875 74.65625 C 182.546875 74.296875 182.941406 73.972656 183.367188 73.6875 C 183.792969 73.40625 184.242188 73.164062 184.714844 72.96875 C 185.183594 72.773438 185.671875 72.625 186.171875 72.527344 C 186.675781 72.425781 187.179688 72.378906 187.691406 72.378906 C 188.203125 72.378906 188.710938 72.425781 189.210938 72.527344 C 189.714844 72.625 190.199219 72.773438 190.671875 72.96875 C 191.144531 73.164062 191.59375 73.40625 192.019531 73.6875 C 192.445312 73.972656 192.835938 74.296875 193.199219 74.65625 C 193.5625 75.019531 193.882812 75.414062 194.167969 75.839844 C 194.453125 76.261719 194.691406 76.710938 194.886719 77.183594 C 195.082031 77.65625 195.230469 78.144531 195.332031 78.644531 C 195.429688 79.148438 195.480469 79.652344 195.480469 80.164062 C 195.480469 80.675781 195.429688 81.183594 195.332031 81.683594 C 195.230469 82.183594 195.082031 82.671875 194.886719 83.144531 C 194.691406 83.617188 194.453125 84.066406 194.167969 84.492188 C 193.882812 84.914062 193.5625 85.308594 193.199219 85.671875 C 192.835938 86.03125 192.445312 86.355469 192.019531 86.640625 C 191.59375 86.921875 191.144531 87.164062 190.671875 87.359375 C 190.199219 87.554688 189.714844 87.703125 189.210938 87.800781 C 188.710938 87.902344 188.203125 87.953125 187.691406 87.953125 Z M 187.691406 87.953125 " fill-opacity="1" fill-rule="nonzero"/><g fill="#0e00ad" fill-opacity="1"><g transform="translate(65.811966, 357.402574)"><g><path d="M -2.699219 -7.730469 C -2.699219 -0.925781 1.890625 4.390625 9.019531 4.390625 C 11.273438 4.390625 13.773438 3.90625 16.671875 2.777344 C 18.082031 1.289062 19.488281 -0.644531 20.65625 -2.417969 C 21.664062 -4.226562 22.589844 -5.394531 24.644531 -6.726562 L 27.625 -10.628906 L 31.246094 -10.792969 C 32.496094 -11.152344 33.824219 -11.4375 35.152344 -11.757812 C 35.195312 -11.839844 35.316406 -11.839844 35.433594 -11.839844 C 35.636719 -11.839844 35.839844 -11.757812 35.839844 -11.675781 C 35.839844 -11.074219 34.992188 -7.570312 35.113281 -3.382812 C 35.113281 -2.898438 35.152344 -2.335938 35.152344 -1.8125 L 35.476562 -1.128906 C 35.597656 0.363281 35.878906 2.132812 36.28125 3.824219 L 36.402344 4.066406 C 36.84375 4.308594 37.570312 6.082031 38.011719 6.765625 C 39.785156 9.988281 42.601562 12.199219 46.347656 12.199219 C 46.910156 12.199219 47.394531 12.199219 47.957031 12.082031 L 48.160156 11.796875 C 48.242188 11.636719 48.441406 11.597656 48.683594 11.597656 C 48.882812 11.597656 49.085938 11.636719 49.289062 11.636719 C 49.488281 11.636719 49.691406 11.597656 49.691406 11.4375 C 53.03125 10.390625 53.71875 6.402344 53.355469 4.832031 C 53.273438 4.390625 53.03125 4.148438 52.832031 4.148438 C 52.589844 4.148438 52.46875 4.308594 52.347656 4.589844 C 52.386719 4.671875 52.347656 4.75 52.265625 4.832031 L 51.824219 6.402344 C 51.621094 7.085938 51.261719 7.730469 51.058594 8.535156 C 50.859375 10.550781 47.476562 10.589844 45.984375 10.589844 C 44.171875 10.511719 41.554688 9.222656 40.589844 4.953125 C 40.308594 3.90625 40.1875 2.617188 40.1875 1.128906 L 40.226562 0.726562 C 40.1875 -0.402344 40.226562 -1.53125 40.429688 -2.859375 C 40.589844 -3.988281 40.507812 -5.035156 40.953125 -6.160156 C 41.234375 -6.320312 41.074219 -6.765625 41.074219 -6.84375 C 41.195312 -10.226562 41.476562 -13.652344 42.242188 -13.972656 C 42.601562 -14.296875 42.925781 -14.09375 43.289062 -14.457031 C 44.65625 -14.898438 44.9375 -14.9375 45.097656 -14.9375 L 45.261719 -14.9375 C 47.554688 -15.421875 47.957031 -16.628906 47.878906 -17.03125 C 47.835938 -17.273438 47.433594 -17.636719 46.75 -17.636719 C 46.46875 -17.636719 45.984375 -17.597656 45.300781 -17.515625 L 44.09375 -16.992188 C 43.730469 -16.953125 43.570312 -16.914062 43.449219 -16.914062 C 43.246094 -16.914062 43.289062 -16.992188 42.644531 -16.992188 L 43.410156 -19.207031 C 43.167969 -20.335938 42.886719 -21.421875 42.683594 -22.550781 L 43.410156 -25.730469 C 43.570312 -26.816406 43.648438 -27.421875 43.488281 -28.105469 C 42.964844 -30.441406 40.550781 -32.335938 39.339844 -32.335938 C 39.058594 -32.335938 38.777344 -32.253906 38.695312 -32.054688 C 38.496094 -30.242188 34.75 -25.570312 31.648438 -22.347656 C 29.03125 -19.609375 26.617188 -14.253906 26.335938 -13.246094 C 25.851562 -12.886719 25.328125 -12.765625 24.722656 -12.765625 C 23.597656 -12.765625 22.269531 -13.167969 20.65625 -13.167969 C 18.199219 -13.167969 15.90625 -15.421875 15.703125 -16.390625 C 15.664062 -16.429688 15.703125 -16.46875 15.703125 -16.507812 C 15.542969 -16.105469 14.214844 -16.832031 14.738281 -14.578125 C 15.34375 -11.917969 18.84375 -10.269531 23.960938 -10.269531 C 21.945312 -7.933594 16.589844 3.34375 11.355469 3.34375 C 7.25 3.34375 2.496094 2.738281 1.085938 0.242188 C -0.203125 -1.449219 -1.289062 -4.1875 -1.609375 -5.597656 C -1.730469 -6.160156 -1.730469 -6.523438 -1.609375 -6.523438 C -1.652344 -6.964844 -1.691406 -7.410156 -1.691406 -7.890625 C -1.691406 -11.839844 -0.160156 -17.394531 6.203125 -19.933594 C 8.457031 -20.253906 9.460938 -20.777344 12 -20.777344 C 12.84375 -20.777344 14.253906 -20.699219 14.820312 -20.699219 C 20.09375 -20.699219 23.476562 -15.582031 24.242188 -15.421875 C 24.5625 -15.34375 25.046875 -15.179688 25.449219 -15.179688 C 25.769531 -15.179688 26.65625 -15.300781 26.496094 -16.027344 C 26.253906 -17.03125 25.125 -19.972656 22.105469 -19.972656 L 21.664062 -19.972656 C 18.039062 -21.261719 14.898438 -21.824219 12.121094 -21.824219 C 2.132812 -21.824219 -2.699219 -14.578125 -2.699219 -7.730469 Z M 38.214844 -27.703125 C 38.738281 -25.328125 36.523438 -18.484375 36.363281 -14.617188 C 35.074219 -14.253906 33.785156 -13.652344 32.292969 -13.652344 C 32.214844 -13.691406 32.09375 -13.730469 31.933594 -13.730469 C 31.367188 -13.730469 30.363281 -13.167969 29.796875 -13.167969 C 29.675781 -13.167969 29.554688 -13.167969 29.476562 -13.246094 C 30.484375 -15.582031 32.65625 -19.328125 33.664062 -21.421875 L 35.394531 -24.402344 L 38.132812 -27.945312 C 38.132812 -27.863281 38.214844 -27.785156 38.214844 -27.703125 Z M 38.214844 -27.703125 "/></g></g></g><g fill="#e07c00" fill-opacity="1"><g transform="translate(110.870556, 357.402574)"><g><path d="M 0.683594 -8.054688 C 0.765625 -7.289062 0.886719 -7.046875 1.085938 -7.046875 C 1.328125 -7.046875 3.019531 -9.582031 3.261719 -10.1875 L 3.867188 -11.4375 L 3.867188 -11.394531 C 4.148438 -11.71875 4.027344 -11.71875 4.148438 -12.121094 C 4.347656 -12.644531 4.589844 -13.007812 4.792969 -13.289062 C 4.832031 -13.328125 4.871094 -13.367188 4.953125 -13.367188 C 5.195312 -13.367188 5.558594 -13.167969 5.796875 -13.085938 C 6.082031 -12.964844 6.363281 -12.886719 6.605469 -12.886719 C 6.644531 -12.886719 6.726562 -12.925781 6.804688 -12.964844 C 6.84375 -12.925781 6.84375 -12.925781 6.925781 -12.925781 C 7.007812 -12.925781 7.207031 -13.046875 7.367188 -13.128906 C 7.410156 -13.167969 7.449219 -13.167969 7.488281 -13.167969 L 7.488281 -13.128906 C 7.488281 -13.046875 7.488281 -12.964844 7.449219 -12.886719 L 7.410156 -12.5625 C 7.410156 -12.5625 7.449219 -12.523438 7.449219 -12.5625 C 7.53125 -11.839844 7.085938 -11.035156 6.683594 -10.1875 C 6.160156 -9.140625 5.515625 -7.730469 5.515625 -6.402344 C 5.476562 -5.757812 5.316406 -5.035156 5.152344 -4.390625 C 4.992188 -3.664062 4.871094 -3.019531 4.914062 -2.535156 C 5.234375 1.046875 7.085938 3.703125 10.429688 3.988281 C 11.917969 3.988281 13.53125 3.542969 15.382812 1.085938 C 15.785156 0.242188 16.1875 -0.605469 16.710938 -1.410156 L 17.113281 -2.011719 C 17.394531 -2.375 18.082031 -3.785156 18.523438 -4.671875 L 18.84375 -5.316406 L 19.085938 -6 C 20.09375 -8.457031 19.972656 -8.898438 19.730469 -9.058594 L 19.769531 -9.058594 L 19.691406 -9.140625 C 19.652344 -9.261719 19.652344 -9.34375 19.652344 -9.421875 C 19.652344 -9.625 19.652344 -9.746094 19.609375 -9.746094 C 19.246094 -9.746094 18.644531 -7.730469 18.5625 -7.449219 C 18.402344 -6.925781 18.199219 -6.363281 17.917969 -5.675781 C 16.550781 -2.054688 13.289062 2.214844 11.757812 2.214844 C 11.675781 2.214844 11.558594 2.214844 11.476562 2.132812 C 11.273438 2.253906 11.113281 2.335938 10.992188 2.335938 C 10.269531 2.335938 10.066406 0.726562 9.90625 -0.484375 L 9.867188 -0.84375 C 9.945312 -0.925781 9.90625 -0.964844 9.90625 -1.085938 L 9.824219 -1.890625 L 9.824219 -2.496094 C 9.824219 -3.34375 9.945312 -4.226562 10.1875 -5.113281 L 11.035156 -7.046875 C 11.597656 -8.738281 12.28125 -10.066406 12.84375 -11.074219 C 13.410156 -12.121094 13.8125 -12.886719 13.773438 -13.367188 C 13.652344 -14.777344 11.273438 -16.46875 10.710938 -16.46875 C 10.46875 -16.429688 9.582031 -16.066406 8.375 -15.34375 L 6.765625 -14.375 L 6.804688 -14.375 C 6.605469 -14.296875 6.441406 -14.253906 6.28125 -14.253906 C 6.28125 -14.253906 6.28125 -14.296875 6.242188 -14.335938 L 6.242188 -14.296875 L 6.082031 -14.617188 L 6 -14.617188 C 5.71875 -14.617188 5.597656 -14.898438 5.515625 -14.898438 C 5.476562 -14.898438 5.4375 -14.859375 5.4375 -14.859375 C 5.515625 -15.140625 5.636719 -15.261719 5.917969 -15.867188 C 6.765625 -17.636719 8.09375 -20.496094 7.972656 -22.46875 C 7.851562 -23.675781 6.886719 -24.402344 5.757812 -24.402344 C 3.058594 -24.402344 1.449219 -20.253906 1.570312 -17.476562 C 1.570312 -17.273438 1.652344 -17.113281 1.730469 -16.992188 L 1.773438 -16.792969 C 1.773438 -16.550781 2.214844 -15.945312 2.65625 -15.34375 C 3.101562 -14.777344 3.542969 -14.175781 3.542969 -14.011719 C 3.582031 -13.449219 2.820312 -11.917969 2.253906 -10.871094 C 1.933594 -10.269531 0.683594 -8.132812 0.683594 -8.054688 Z M -15.703125 3.945312 C -18.605469 3.945312 -21.421875 4.148438 -23.636719 4.390625 C -24.199219 4.511719 -24.765625 4.589844 -25.328125 4.589844 C -25.691406 4.628906 -26.617188 4.792969 -29.476562 5.71875 L -31.046875 6.402344 L -28.992188 6.441406 C -28.953125 6.441406 -28.910156 6.484375 -28.871094 6.484375 C -28.792969 6.484375 -28.671875 6.441406 -28.589844 6.402344 C -28.148438 6.320312 -27.339844 6.320312 -26.414062 6.28125 C -25.289062 6.28125 -24 6.242188 -23.355469 6.082031 C -22.507812 5.878906 -21.300781 5.796875 -20.09375 5.71875 C -19.246094 5.675781 -18.402344 5.597656 -17.71875 5.476562 C -17.675781 5.4375 -17.675781 5.4375 -17.636719 5.4375 C -17.554688 5.4375 -17.515625 5.515625 -17.4375 5.515625 C -17.394531 5.558594 -17.394531 5.515625 -17.355469 5.515625 L -16.914062 5.515625 C -12.683594 5.71875 -9.421875 5.960938 -5.675781 7.007812 C -4.628906 7.367188 -3.503906 7.652344 -2.335938 7.972656 C 1.007812 8.898438 4.429688 9.90625 5.234375 11.234375 C 5.839844 12.28125 6.160156 12.964844 6.5625 12.964844 C 7.046875 12.964844 7.851562 12.121094 9.582031 10.148438 L 10.148438 9.503906 C 9.34375 8.132812 7.730469 6.121094 3.746094 5.757812 C 0.683594 4.550781 -2.253906 3.503906 -6.886719 3.503906 C -8.65625 3.503906 -10.628906 3.664062 -13.007812 3.988281 C -13.890625 3.945312 -14.820312 3.945312 -15.703125 3.945312 Z M 6.039062 -21.140625 C 6.160156 -21.101562 6.242188 -20.9375 6.242188 -20.777344 C 6.320312 -19.851562 5.515625 -17.71875 4.628906 -15.785156 L 4.589844 -15.945312 C 4.429688 -16.308594 4.1875 -16.914062 4.105469 -17.515625 C 4.105469 -18.683594 5.316406 -20.816406 6.039062 -21.140625 Z M 6.039062 -21.140625 "/></g></g></g><g fill="#e07c00" fill-opacity="1"><g transform="translate(128.506919, 357.402574)"><g><path d="M 11.035156 -25.730469 C 10.832031 -25.890625 10.710938 -26.414062 10.589844 -26.859375 L 10.347656 -27.625 L 10.347656 -28.308594 C 10.105469 -30.363281 8.09375 -31.53125 7.367188 -31.53125 C 6.726562 -31.53125 6.5625 -30.121094 6.402344 -28.46875 C 6.320312 -27.625 6.242188 -26.617188 6.082031 -25.691406 C 6.039062 -25.449219 5.917969 -25.125 5.796875 -24.84375 C 5.675781 -24.601562 5.597656 -24.363281 5.515625 -24 L 5.515625 -24.039062 L 4.550781 -21.421875 C 4.105469 -21.460938 3.582031 -21.503906 3.140625 -21.503906 L 1.730469 -21.582031 C -0.605469 -21.785156 -2.375 -22.269531 -3.582031 -22.75 L -4.148438 -22.671875 C -4.269531 -22.792969 -4.347656 -22.832031 -4.429688 -22.832031 C -4.46875 -22.832031 -4.550781 -22.792969 -4.589844 -22.75 C -4.792969 -22.75 -4.871094 -22.589844 -4.871094 -22.429688 C -4.589844 -21.140625 -1.691406 -20.09375 1.773438 -19.730469 L 3.988281 -19.488281 C 3.867188 -18.886719 3.785156 -18.320312 3.703125 -17.757812 C 3.503906 -16.671875 3.34375 -15.503906 3.019531 -14.457031 L 3.019531 -14.496094 C 2.859375 -14.09375 2.738281 -13.53125 2.617188 -13.007812 L 2.457031 -12.320312 C 2.457031 -12.199219 2.496094 -12.082031 2.496094 -11.960938 C 1.488281 -9.222656 0.886719 -6.441406 0.964844 -4.992188 C 1.085938 -4.105469 2.335938 -2.941406 3.140625 -2.214844 C 3.503906 -1.410156 4.105469 -0.804688 5.273438 -0.804688 C 6.320312 -0.804688 7.890625 -2.253906 9.261719 -3.785156 L 10.710938 -5.597656 C 13.128906 -8.617188 14.617188 -11.355469 14.777344 -12.441406 C 14.777344 -12.523438 14.777344 -12.644531 14.699219 -12.765625 L 14.738281 -12.804688 L 14.738281 -12.765625 C 14.777344 -12.886719 14.820312 -13.007812 14.777344 -13.128906 C 14.777344 -13.328125 14.578125 -13.488281 14.414062 -13.488281 C 14.011719 -13.488281 12.644531 -10.871094 12.160156 -9.90625 L 12.160156 -9.945312 L 11.960938 -9.542969 C 11.597656 -8.738281 10.871094 -7.851562 10.226562 -7.046875 C 9.988281 -6.765625 9.703125 -6.484375 9.503906 -6.203125 C 8.335938 -4.792969 6.644531 -3.058594 5.917969 -2.738281 C 5.757812 -2.898438 5.71875 -3.101562 5.71875 -3.382812 C 5.558594 -4.792969 6.363281 -7.167969 7.289062 -9.824219 L 8.375 -13.085938 L 8.296875 -14.011719 C 8.617188 -14.980469 8.859375 -16.226562 9.019531 -17.273438 C 9.101562 -17.960938 9.222656 -18.644531 9.34375 -19.328125 L 12.804688 -19.167969 L 13.007812 -19.167969 C 13.128906 -19.128906 13.207031 -19.128906 13.367188 -19.128906 C 16.347656 -18.804688 19.085938 -17.839844 19.289062 -16.914062 L 19.851562 -16.914062 C 20.09375 -16.914062 20.375 -16.992188 20.292969 -17.394531 C 20.132812 -18.5625 18.199219 -20.375 13.773438 -20.816406 L 13.328125 -20.816406 C 13.207031 -20.777344 13.085938 -20.777344 13.007812 -20.777344 L 9.785156 -20.9375 C 10.308594 -22.710938 10.710938 -24.199219 11.035156 -25.609375 Z M 11.035156 -25.730469 "/></g></g></g><g fill="#e07c00" fill-opacity="1"><g transform="translate(138.774672, 357.402574)"><g/></g></g><g fill="#0e00ad" fill-opacity="1"><g transform="translate(153.151804, 357.402574)"><g><path d="M 30.964844 -27.824219 C 30.925781 -27.703125 30.886719 -27.582031 30.886719 -27.460938 L 30.804688 -27.058594 L 30.722656 -26.175781 C 30.722656 -26.09375 30.683594 -25.972656 30.683594 -25.851562 C 30.644531 -25.085938 30.5625 -24.28125 30.402344 -23.4375 L 30.160156 -22.269531 C 30.160156 -22.105469 30.160156 -21.945312 30.078125 -21.785156 C 30 -21.300781 29.960938 -20.816406 29.796875 -20.292969 L 29.195312 -18.082031 C 29.074219 -17.675781 28.910156 -17.316406 28.832031 -16.953125 C 28.832031 -16.832031 28.75 -16.710938 28.710938 -16.628906 L 28.347656 -15.300781 C 28.226562 -14.9375 28.027344 -14.617188 27.90625 -14.253906 C 27.664062 -13.53125 27.339844 -12.84375 27.058594 -12.160156 L 26.253906 -10.308594 C 26.054688 -9.945312 25.972656 -9.664062 25.769531 -9.300781 L 25.449219 -8.578125 C 25.449219 -8.535156 25.410156 -8.457031 25.410156 -8.414062 C 25.289062 -8.132812 25.125 -7.851562 24.964844 -7.570312 L 24.722656 -7.128906 C 24.722656 -7.046875 24.683594 -6.964844 24.644531 -6.925781 L 24.039062 -5.960938 C 23.476562 -5.074219 21.824219 -2.859375 20.898438 -2.535156 C 20.414062 -2.617188 20.335938 -3.179688 20.335938 -3.582031 L 20.292969 -3.703125 C 20.214844 -3.867188 20.175781 -4.066406 20.132812 -4.226562 L 20.09375 -4.710938 C 20.054688 -5.113281 20.011719 -6.082031 20.011719 -7.007812 L 19.890625 -9.140625 L 19.691406 -10.589844 L 19.609375 -11.558594 C 19.570312 -11.71875 19.570312 -11.839844 19.570312 -12 L 19.730469 -13.207031 L 19.691406 -13.488281 C 19.652344 -13.652344 19.570312 -13.730469 19.53125 -13.8125 C 19.53125 -14.777344 19.085938 -15.984375 18.683594 -16.832031 C 18.523438 -17.113281 18.363281 -17.355469 18.160156 -17.597656 C 17.960938 -17.796875 17.757812 -18 17.476562 -18.121094 C 17.234375 -18.28125 16.953125 -18.402344 16.710938 -18.402344 C 16.628906 -18.441406 16.589844 -18.484375 16.507812 -18.484375 C 16.46875 -18.484375 16.429688 -18.441406 16.347656 -18.402344 L 16.148438 -18.242188 C 15.945312 -18.199219 15.703125 -18.082031 15.503906 -17.878906 L 15.019531 -17.273438 C 14.898438 -17.152344 14.777344 -16.953125 14.65625 -16.792969 C 14.375 -16.308594 14.054688 -15.625 13.773438 -14.777344 L 13.652344 -14.335938 C 13.488281 -14.253906 13.488281 -14.09375 13.449219 -13.933594 L 13.449219 -13.691406 L 13.410156 -13.410156 C 13.289062 -13.046875 13.207031 -12.683594 13.128906 -12.28125 L 12.886719 -11.152344 C 12.765625 -10.792969 12.5625 -10.429688 12.441406 -10.105469 L 11.878906 -8.980469 C 11.878906 -8.9375 11.839844 -8.9375 11.839844 -8.898438 C 11.71875 -8.617188 11.558594 -8.335938 11.394531 -8.054688 L 9.867188 -5.757812 C 9.824219 -5.71875 9.824219 -5.71875 9.824219 -5.675781 L 9.703125 -5.476562 C 8.65625 -4.1875 7.890625 -3.382812 7.488281 -3.34375 C 7.046875 -3.382812 6.925781 -3.945312 6.925781 -4.511719 C 6.925781 -4.589844 6.925781 -4.671875 6.964844 -4.75 C 6.886719 -4.953125 6.886719 -5.675781 6.84375 -6.484375 L 6.804688 -7.773438 L 6.804688 -9.300781 C 6.765625 -9.90625 6.644531 -10.589844 6.683594 -11.273438 C 6.683594 -11.636719 6.726562 -12 6.804688 -12.320312 L 7.167969 -14.535156 L 7.328125 -15.824219 C 7.488281 -16.832031 7.53125 -17.476562 7.570312 -18.039062 L 7.652344 -18.84375 C 7.652344 -19.007812 7.691406 -19.167969 7.691406 -19.328125 L 7.890625 -20.898438 C 7.890625 -21.101562 7.933594 -21.300781 7.972656 -21.460938 L 7.972656 -22.1875 L 8.09375 -24.402344 L 8.09375 -27.179688 L 8.054688 -27.824219 C 8.011719 -27.984375 8.011719 -28.347656 7.972656 -28.75 C 7.890625 -29.113281 7.8125 -29.554688 7.691406 -29.960938 L 7.609375 -30.28125 C 7.53125 -30.5625 7.449219 -30.804688 7.328125 -31.046875 L 7.046875 -31.609375 C 6.925781 -31.8125 6.84375 -32.011719 6.683594 -32.171875 L 5.917969 -32.898438 L 4.953125 -32.9375 L 4.832031 -33.019531 C 4.792969 -33.058594 4.710938 -33.101562 4.628906 -33.101562 C 4.550781 -33.140625 4.46875 -33.140625 4.390625 -33.140625 C 4.066406 -33.058594 3.785156 -33.019531 3.464844 -32.898438 C 3.222656 -32.816406 2.980469 -32.695312 2.738281 -32.535156 L 2.535156 -32.535156 C 2.132812 -32.457031 1.449219 -32.214844 1.449219 -31.691406 L 1.449219 -31.410156 C 1.449219 -31.328125 1.410156 -31.246094 1.410156 -31.125 C 1.53125 -31.046875 1.570312 -30.886719 1.609375 -30.722656 L 1.851562 -29.234375 C 1.890625 -29.113281 1.890625 -28.910156 1.890625 -28.75 C 1.933594 -28.46875 1.933594 -28.148438 1.933594 -27.785156 L 1.933594 -27.058594 L 1.890625 -26.65625 C 1.890625 -26.253906 1.890625 -25.890625 1.851562 -25.488281 L 1.851562 -25.449219 L 1.773438 -24.320312 C 1.773438 -24.121094 1.730469 -23.878906 1.730469 -23.675781 C 1.609375 -22.710938 1.570312 -21.703125 1.449219 -20.699219 C 1.367188 -20.292969 1.328125 -19.890625 1.289062 -19.53125 L 1.167969 -17.597656 C 1.128906 -17.316406 1.128906 -17.074219 1.128906 -16.832031 L 1.167969 -15.90625 L 1.167969 -15.222656 C 1.128906 -15.101562 1.128906 -14.9375 1.128906 -14.777344 C 1.085938 -14.738281 1.085938 -14.699219 1.085938 -14.65625 C 1.085938 -14.535156 1.085938 -14.414062 1.128906 -14.296875 C 1.128906 -14.175781 1.167969 -14.054688 1.128906 -13.933594 C 1.128906 -13.609375 1.085938 -13.246094 1.046875 -12.886719 L 0.683594 -9.582031 C 0.644531 -9.058594 0.644531 -8.578125 0.644531 -8.09375 C 0.605469 -7.8125 0.605469 -7.570312 0.644531 -7.328125 C 0.605469 -6.644531 0.644531 -6.039062 0.726562 -5.515625 C 0.804688 -4.671875 0.964844 -3.945312 1.128906 -3.382812 C 1.207031 -3.019531 1.328125 -2.738281 1.449219 -2.417969 C 1.570312 -2.175781 1.652344 -1.933594 1.8125 -1.730469 C 1.933594 -1.410156 2.09375 -1.167969 2.253906 -0.925781 L 2.496094 -0.605469 C 2.578125 -0.441406 2.617188 -0.28125 2.699219 -0.160156 C 2.859375 0.0820312 2.980469 0.28125 3.382812 0.523438 C 3.503906 0.683594 3.785156 0.886719 4.1875 1.007812 C 4.589844 1.167969 4.992188 1.207031 5.4375 1.207031 C 5.597656 1.207031 5.796875 1.167969 6 1.046875 C 6.242188 1.046875 6.441406 0.925781 6.804688 0.5625 C 7.773438 -0.0390625 8.375 -1.007812 8.980469 -1.8125 L 10.671875 -4.027344 L 10.628906 -4.027344 C 10.671875 -4.066406 10.671875 -4.105469 10.671875 -4.148438 L 10.710938 -4.226562 C 10.710938 -4.347656 10.792969 -4.511719 10.832031 -4.628906 C 10.832031 -4.710938 10.871094 -4.792969 10.953125 -4.914062 C 11.195312 -5.515625 11.839844 -5.960938 11.960938 -6.523438 L 12.28125 -7.085938 L 12.28125 -7.128906 L 12.320312 -7.289062 C 12.523438 -7.609375 12.925781 -8.375 13.167969 -8.65625 C 13.207031 -8.65625 13.246094 -8.496094 13.289062 -8.375 C 13.328125 -8.296875 13.367188 -8.175781 13.367188 -8.09375 C 13.367188 -8.09375 13.449219 -7.8125 13.449219 -7.773438 C 13.488281 -7.691406 13.53125 -7.609375 13.53125 -7.449219 L 13.609375 -6.804688 L 13.609375 -6.203125 C 13.609375 -5.273438 13.730469 -4.46875 13.851562 -3.785156 C 14.011719 -3.222656 14.175781 -2.699219 14.375 -2.253906 L 14.738281 -1.53125 C 14.9375 -1.046875 15.179688 -0.605469 15.382812 -0.203125 L 15.542969 0.203125 C 15.824219 0.84375 15.824219 1.128906 16.429688 1.652344 C 16.507812 1.851562 16.792969 2.011719 17.152344 2.214844 C 17.355469 2.296875 17.597656 2.335938 17.878906 2.375 L 18.441406 2.535156 C 18.523438 2.578125 18.644531 2.578125 18.722656 2.578125 C 19.007812 2.578125 19.289062 2.496094 19.652344 2.253906 C 19.691406 2.253906 19.730469 2.253906 19.769531 2.214844 C 20.292969 1.972656 20.535156 1.609375 20.898438 1.128906 C 21.140625 0.886719 21.339844 0.644531 21.503906 0.441406 C 21.542969 0.320312 21.625 0.28125 21.703125 0.160156 L 22.308594 -0.644531 L 22.871094 -1.53125 C 23.234375 -2.175781 23.636719 -2.777344 24.078125 -3.382812 C 24.28125 -3.824219 24.765625 -4.148438 24.804688 -4.589844 C 25.007812 -4.871094 25.207031 -5.074219 25.246094 -5.394531 L 25.851562 -6.242188 L 25.933594 -6.765625 L 26.292969 -7.328125 L 26.292969 -7.773438 C 26.699219 -8.535156 27.101562 -9.382812 27.503906 -10.308594 L 28.027344 -11.4375 L 28.027344 -11.476562 C 28.550781 -12.484375 29.074219 -13.53125 29.515625 -14.535156 L 30.121094 -15.746094 L 30.28125 -16.1875 C 30.402344 -16.46875 30.523438 -16.75 30.683594 -17.03125 C 30.886719 -17.554688 31.125 -18.039062 31.328125 -18.441406 L 31.890625 -19.730469 C 32.414062 -20.535156 32.980469 -22.1875 33.140625 -23.234375 C 33.300781 -23.839844 33.382812 -24.523438 33.382812 -25.167969 L 33.382812 -25.410156 C 33.382812 -25.488281 33.421875 -25.609375 33.421875 -25.691406 L 33.582031 -26.335938 L 33.582031 -26.617188 L 33.863281 -27.542969 L 33.863281 -28.550781 C 33.863281 -28.792969 33.824219 -29.03125 33.785156 -29.234375 L 33.503906 -30.121094 C 33.460938 -30.160156 33.460938 -30.199219 33.460938 -30.242188 L 33.21875 -30.804688 C 33.019531 -31.125 32.898438 -31.410156 32.738281 -31.609375 C 32.578125 -31.890625 32.414062 -32.09375 32.214844 -32.253906 C 32.054688 -32.414062 31.933594 -32.65625 31.691406 -32.859375 C 31.367188 -33.582031 30.964844 -33.945312 30.683594 -33.945312 C 30.5625 -33.945312 30.484375 -33.90625 30.402344 -33.863281 L 30.160156 -33.703125 L 30.121094 -33.703125 L 29.960938 -33.582031 L 29.960938 -33.542969 C 29.917969 -33.261719 29.960938 -33.300781 30.242188 -32.738281 C 30.199219 -32.738281 30.160156 -32.695312 30.160156 -32.695312 L 30.078125 -32.695312 L 29.960938 -32.414062 C 29.960938 -32.335938 29.917969 -32.253906 29.878906 -32.171875 C 29.878906 -32.09375 29.839844 -32.011719 29.839844 -31.933594 C 29.878906 -31.730469 29.878906 -31.851562 30.242188 -31.367188 L 30.402344 -30.683594 L 30.644531 -30 C 30.722656 -29.597656 30.886719 -29.152344 30.925781 -28.429688 C 30.925781 -28.386719 30.925781 -28.386719 30.964844 -28.347656 Z M 30.964844 -27.824219 "/></g></g></g><g fill="#e07c00" fill-opacity="1"><g transform="translate(184.522899, 357.402574)"><g><path d="M 8.777344 -16.589844 C 8.617188 -16.589844 8.414062 -16.589844 8.214844 -16.507812 C 8.175781 -16.550781 8.132812 -16.550781 8.054688 -16.550781 C 7.890625 -16.550781 7.652344 -16.429688 7.449219 -16.347656 C 7.25 -16.226562 7.085938 -16.148438 6.964844 -16.148438 L 6.683594 -16.148438 C 6.5625 -16.148438 6.441406 -16.1875 6.320312 -16.1875 C 6.039062 -16.1875 5.675781 -16.105469 5.316406 -15.785156 L 5.113281 -15.625 L 5.113281 -15.664062 C 4.992188 -15.625 4.914062 -15.542969 4.792969 -15.421875 C 4.308594 -15.019531 3.824219 -14.496094 3.382812 -13.972656 L 2.859375 -13.410156 C 2.457031 -13.128906 1.851562 -12.082031 1.449219 -11.4375 L 1.289062 -11.195312 L 1.007812 -10.429688 C 0.605469 -9.625 0.242188 -8.777344 0.0390625 -7.890625 C 0.0390625 -7.8125 0 -7.691406 0 -7.609375 C -0.0390625 -7.570312 -0.0390625 -7.488281 -0.0390625 -7.449219 C -0.160156 -6.605469 -0.28125 -5.71875 -0.28125 -4.871094 C -0.242188 -4.832031 -0.28125 -4.269531 -0.28125 -3.664062 C -0.320312 -3.058594 -0.320312 -2.457031 -0.320312 -2.457031 C -0.320312 -2.132812 -0.160156 -1.773438 0.0390625 -1.449219 L 0 -1.449219 C 0.28125 0.320312 1.25 1.085938 1.972656 1.367188 L 2.011719 1.410156 C 2.941406 2.011719 4.390625 2.214844 5.476562 2.214844 C 6.726562 2.214844 7.488281 1.652344 8.535156 0.964844 L 9.785156 0.121094 C 10.511719 -0.363281 11.355469 -1.289062 11.917969 -1.972656 L 12 -2.054688 C 12.363281 -2.699219 13.128906 -3.382812 13.609375 -4.027344 L 14.414062 -5.074219 L 14.535156 -5.4375 C 14.578125 -5.515625 14.617188 -5.558594 14.617188 -5.636719 L 14.820312 -5.960938 C 15.300781 -6.5625 15.785156 -7.289062 15.984375 -7.730469 C 16.550781 -8.457031 16.953125 -8.980469 16.914062 -9.421875 C 16.871094 -9.625 16.871094 -9.703125 16.792969 -9.703125 C 16.792969 -9.703125 16.75 -9.664062 16.671875 -9.625 L 16.671875 -9.664062 L 16.46875 -9.582031 C 16.390625 -9.582031 16.226562 -9.542969 16.105469 -9.460938 C 15.746094 -9.34375 14.9375 -7.972656 14.175781 -6.726562 C 13.773438 -6.039062 13.128906 -5.394531 12.84375 -4.992188 C 12.722656 -4.792969 12.523438 -4.511719 12.402344 -4.269531 C 10.105469 -1.367188 7.085938 0.320312 5.917969 0.320312 C 5.234375 0.320312 4.46875 0.0390625 4.429688 -0.402344 C 4.390625 -0.886719 4.308594 -1.652344 4.308594 -2.417969 C 4.308594 -3.382812 4.390625 -4.347656 4.75 -4.792969 L 5.757812 -5.273438 C 6.203125 -5.476562 7.851562 -6.804688 8.375 -7.367188 C 9.101562 -7.933594 9.785156 -8.617188 10.308594 -9.34375 L 10.511719 -9.503906 C 11.074219 -10.148438 11.917969 -11.636719 12 -12 C 12.28125 -12.605469 12.402344 -13.207031 12.402344 -13.773438 C 12.039062 -16.507812 9.222656 -16.589844 8.777344 -16.589844 Z M 8.414062 -11.636719 C 9.019531 -12.441406 9.785156 -13.246094 10.105469 -13.328125 C 10.269531 -13.246094 10.390625 -13.085938 10.511719 -13.007812 C 10.429688 -11.558594 9.179688 -9.703125 7.570312 -8.132812 L 6.683594 -7.410156 C 6.402344 -7.167969 6.082031 -6.886719 5.757812 -6.726562 C 6 -7.53125 6.84375 -9.261719 7.933594 -10.914062 C 7.933594 -10.953125 8.011719 -11.035156 8.011719 -11.074219 C 8.054688 -11.234375 8.175781 -11.394531 8.214844 -11.476562 Z M 8.414062 -11.636719 "/></g></g></g><g fill="#e07c00" fill-opacity="1"><g transform="translate(198.736678, 357.402574)"><g><path d="M 13.8125 -1.851562 C 14.535156 -2.335938 15.222656 -2.578125 15.785156 -3.179688 C 16.226562 -3.664062 16.953125 -4.792969 18 -5.636719 C 18.121094 -6.363281 18.039062 -6.203125 18.484375 -6.804688 C 18.804688 -7.25 19.085938 -7.609375 19.207031 -7.890625 C 19.449219 -8.496094 19.609375 -8.457031 19.691406 -8.617188 C 19.933594 -9.019531 20.132812 -9.460938 20.09375 -9.90625 L 20.09375 -10.066406 C 20.132812 -10.226562 20.09375 -10.429688 19.933594 -10.429688 L 19.652344 -10.429688 C 19.207031 -10.148438 19.128906 -9.90625 18.765625 -9.101562 C 17.917969 -7.410156 15.542969 -4.269531 13.773438 -3.867188 C 14.898438 -5.636719 16.589844 -8.414062 16.429688 -10.511719 C 16.269531 -10.914062 16.269531 -11.113281 16.226562 -11.316406 C 16.148438 -11.597656 16.066406 -11.878906 15.90625 -12.242188 C 15.058594 -13.652344 13.328125 -15.019531 12.160156 -15.019531 L 11.597656 -15.019531 C 10.308594 -15.019531 9.625 -14.699219 8.980469 -14.09375 L 7.53125 -12.765625 C 7.53125 -13.007812 7.570312 -13.046875 7.609375 -13.167969 C 7.570312 -13.289062 7.773438 -13.773438 7.933594 -14.214844 C 8.09375 -14.617188 8.253906 -15.019531 8.253906 -15.222656 C 8.132812 -16.390625 9.222656 -20.457031 9.460938 -21.101562 L 10.226562 -23.757812 C 10.390625 -24.441406 10.46875 -25.246094 10.46875 -25.972656 C 10.269531 -28.066406 8.617188 -29.960938 7.367188 -29.960938 C 7.289062 -29.960938 7.167969 -29.839844 7.046875 -29.796875 L 6.523438 -29.796875 C 6.203125 -29.476562 4.792969 -27.222656 4.628906 -26.175781 C 4.46875 -24.039062 3.464844 -18.925781 2.738281 -16.871094 C 2.65625 -16.429688 2.65625 -16.1875 2.65625 -15.945312 C 2.65625 -15.703125 2.617188 -15.382812 2.535156 -15.058594 L 1.167969 -11.394531 C 1.046875 -10.710938 0.886719 -9.945312 0.726562 -9.261719 C 0.203125 -6.726562 -0.363281 -4.1875 -0.441406 -2.09375 L -0.441406 -1.328125 C -0.363281 0.0820312 1.8125 1.167969 2.417969 1.167969 C 3.019531 1.167969 3.945312 -3.019531 3.945312 -3.625 C 4.027344 -4.1875 4.390625 -4.75 4.75 -5.195312 C 4.953125 -5.476562 5.113281 -5.71875 5.152344 -5.839844 L 5.675781 -7.25 L 6.039062 -8.65625 C 6.28125 -9.542969 6.28125 -9.582031 6.726562 -9.988281 L 7.167969 -10.46875 C 7.25 -10.550781 7.410156 -10.75 7.570312 -11.035156 C 8.011719 -11.636719 8.617188 -12.484375 8.980469 -12.484375 L 10.105469 -13.246094 C 10.429688 -13.410156 11.113281 -13.410156 11.394531 -13.410156 C 11.796875 -13.410156 12 -12.886719 12.039062 -12.320312 C 12.121094 -11.234375 11.597656 -9.542969 11.113281 -8.175781 L 10.992188 -7.851562 C 10.953125 -7.691406 10.914062 -7.488281 10.832031 -7.289062 C 10.75 -6.964844 10.671875 -6.644531 10.511719 -6.320312 C 8.9375 -4.511719 6.84375 -3.019531 4.992188 -2.132812 C 4.914062 -1.972656 4.832031 -1.890625 4.710938 -1.773438 C 4.511719 -1.488281 4.308594 -1.25 4.347656 -0.886719 C 4.429688 0.0390625 6.5625 1.609375 7.488281 1.609375 C 8.980469 1.609375 10.871094 0.605469 11.597656 -0.0820312 L 11.960938 -0.320312 C 12.402344 -0.605469 12.84375 -0.886719 13.167969 -1.289062 Z M 13.8125 -1.851562 "/></g></g></g><g fill="#e07c00" fill-opacity="1"><g transform="translate(216.050924, 357.402574)"><g/></g></g><g fill="#0e00ad" fill-opacity="1"><g transform="translate(230.436959, 357.402574)"><g><path d="M -0.683594 -13.046875 C -0.84375 -12.199219 -0.84375 -11.113281 -0.84375 -10.066406 L -0.84375 -8.054688 C -0.84375 -7.890625 -0.804688 -7.730469 -0.804688 -7.570312 C -0.5625 -5.234375 0.0390625 -3.382812 1.289062 -1.410156 C 3.421875 1.289062 6.203125 2.820312 9.746094 2.820312 C 10.914062 2.738281 12.160156 2.617188 13.488281 1.933594 C 14.414062 1.652344 15.261719 1.167969 16.148438 0.605469 L 16.46875 0.121094 C 17.839844 -0.523438 18.765625 -1.25 19.890625 -2.457031 C 19.972656 -2.65625 20.292969 -2.980469 20.414062 -3.058594 C 20.496094 -3.179688 20.578125 -3.300781 20.578125 -3.382812 C 21.382812 -4.105469 22.953125 -5.796875 23.316406 -6.886719 C 23.316406 -6.886719 23.394531 -7.007812 23.4375 -7.046875 L 23.476562 -7.128906 L 23.476562 -7.167969 C 23.796875 -7.609375 24.199219 -8.699219 24.320312 -8.980469 L 24.722656 -9.582031 C 24.765625 -9.625 24.765625 -9.625 24.765625 -9.664062 C 24.886719 -9.785156 24.964844 -10.027344 25.085938 -10.308594 C 25.328125 -11.035156 25.289062 -11.273438 25.125 -11.152344 C 25.085938 -11.273438 25.007812 -11.355469 24.84375 -11.355469 C 24.523438 -11.355469 24 -10.914062 23.878906 -9.867188 C 23.71875 -9.382812 22.710938 -8.414062 21.90625 -7.046875 C 21.261719 -6.039062 19.972656 -4.429688 19.085938 -3.542969 C 17.960938 -2.535156 16.75 -1.25 15.101562 -0.765625 C 14.296875 -0.363281 13.246094 0.320312 12.363281 0.523438 C 11.675781 0.523438 10.832031 0.160156 10.269531 -0.203125 C 10.1875 -0.160156 10.027344 -0.242188 9.90625 -0.320312 C 6.964844 -0.804688 5.878906 -3.945312 5.675781 -6.5625 C 5.675781 -6.765625 5.675781 -6.925781 5.636719 -6.964844 C 5.476562 -7.773438 5.4375 -8.535156 5.476562 -9.34375 C 5.273438 -10.429688 5.597656 -11.035156 5.796875 -12.320312 C 5.960938 -13.007812 6.160156 -14.011719 6.363281 -15.140625 C 7.085938 -18 8.09375 -20.859375 9.785156 -23.316406 C 9.867188 -23.554688 10.027344 -23.796875 10.066406 -24 C 10.308594 -24.402344 10.628906 -24.804688 10.871094 -25.167969 C 11.152344 -25.410156 11.4375 -25.8125 11.675781 -26.214844 C 11.839844 -26.65625 12.039062 -27.101562 12.160156 -27.339844 C 12.484375 -27.703125 12.925781 -28.148438 13.367188 -28.550781 C 14.09375 -29.03125 15.34375 -29.796875 16.1875 -29.796875 C 16.589844 -29.796875 17.4375 -30.039062 17.917969 -30.039062 C 18 -30.039062 18.039062 -30.039062 18.082031 -30.039062 C 18.5625 -29.917969 18.242188 -28.953125 18.363281 -28.386719 C 18.484375 -28.066406 18.484375 -27.703125 18.402344 -27.300781 C 18.320312 -26.699219 18.363281 -26.535156 18.242188 -26.214844 C 18.28125 -26.175781 18.121094 -25.851562 18.242188 -25.851562 C 18.242188 -25.410156 18.320312 -25.007812 18.441406 -24.683594 C 18.484375 -24.363281 18.523438 -24.160156 18.605469 -24.160156 C 18.84375 -23.71875 19.488281 -22.871094 20.175781 -22.914062 C 20.292969 -22.992188 21.339844 -23.234375 21.625 -23.675781 C 21.542969 -23.796875 21.582031 -24.199219 21.746094 -24.644531 L 21.867188 -24.804688 C 22.429688 -25.570312 22.871094 -27.746094 22.871094 -28.710938 C 22.871094 -29.355469 22.75 -29.917969 22.507812 -30.402344 C 21.90625 -31.449219 19.972656 -31.53125 18.886719 -31.53125 C 17.960938 -32.375 16.347656 -32.578125 15.140625 -32.578125 C 14.65625 -32.578125 14.132812 -32.496094 13.691406 -32.375 C 11.917969 -32.253906 9.625 -31.609375 8.214844 -30.441406 C 5.558594 -29.113281 3.382812 -25.851562 2.175781 -23.234375 C 2.09375 -23.03125 2.054688 -22.832031 1.972656 -22.710938 C 0.964844 -20.816406 0.402344 -18.644531 0.160156 -17.074219 C 0 -16.46875 -0.242188 -15.746094 -0.363281 -15.101562 L -0.441406 -14.335938 Z M -0.683594 -13.046875 "/></g></g></g><g fill="#e07c00" fill-opacity="1"><g transform="translate(252.35102, 357.402574)"><g><path d="M 0.683594 -8.054688 C 0.765625 -7.289062 0.886719 -7.046875 1.085938 -7.046875 C 1.328125 -7.046875 3.019531 -9.582031 3.261719 -10.1875 L 3.867188 -11.4375 L 3.867188 -11.394531 C 4.148438 -11.71875 4.027344 -11.71875 4.148438 -12.121094 C 4.347656 -12.644531 4.589844 -13.007812 4.792969 -13.289062 C 4.832031 -13.328125 4.871094 -13.367188 4.953125 -13.367188 C 5.195312 -13.367188 5.558594 -13.167969 5.796875 -13.085938 C 6.082031 -12.964844 6.363281 -12.886719 6.605469 -12.886719 C 6.644531 -12.886719 6.726562 -12.925781 6.804688 -12.964844 C 6.84375 -12.925781 6.84375 -12.925781 6.925781 -12.925781 C 7.007812 -12.925781 7.207031 -13.046875 7.367188 -13.128906 C 7.410156 -13.167969 7.449219 -13.167969 7.488281 -13.167969 L 7.488281 -13.128906 C 7.488281 -13.046875 7.488281 -12.964844 7.449219 -12.886719 L 7.410156 -12.5625 C 7.410156 -12.5625 7.449219 -12.523438 7.449219 -12.5625 C 7.53125 -11.839844 7.085938 -11.035156 6.683594 -10.1875 C 6.160156 -9.140625 5.515625 -7.730469 5.515625 -6.402344 C 5.476562 -5.757812 5.316406 -5.035156 5.152344 -4.390625 C 4.992188 -3.664062 4.871094 -3.019531 4.914062 -2.535156 C 5.234375 1.046875 7.085938 3.703125 10.429688 3.988281 C 11.917969 3.988281 13.53125 3.542969 15.382812 1.085938 C 15.785156 0.242188 16.1875 -0.605469 16.710938 -1.410156 L 17.113281 -2.011719 C 17.394531 -2.375 18.082031 -3.785156 18.523438 -4.671875 L 18.84375 -5.316406 L 19.085938 -6 C 20.09375 -8.457031 19.972656 -8.898438 19.730469 -9.058594 L 19.769531 -9.058594 L 19.691406 -9.140625 C 19.652344 -9.261719 19.652344 -9.34375 19.652344 -9.421875 C 19.652344 -9.625 19.652344 -9.746094 19.609375 -9.746094 C 19.246094 -9.746094 18.644531 -7.730469 18.5625 -7.449219 C 18.402344 -6.925781 18.199219 -6.363281 17.917969 -5.675781 C 16.550781 -2.054688 13.289062 2.214844 11.757812 2.214844 C 11.675781 2.214844 11.558594 2.214844 11.476562 2.132812 C 11.273438 2.253906 11.113281 2.335938 10.992188 2.335938 C 10.269531 2.335938 10.066406 0.726562 9.90625 -0.484375 L 9.867188 -0.84375 C 9.945312 -0.925781 9.90625 -0.964844 9.90625 -1.085938 L 9.824219 -1.890625 L 9.824219 -2.496094 C 9.824219 -3.34375 9.945312 -4.226562 10.1875 -5.113281 L 11.035156 -7.046875 C 11.597656 -8.738281 12.28125 -10.066406 12.84375 -11.074219 C 13.410156 -12.121094 13.8125 -12.886719 13.773438 -13.367188 C 13.652344 -14.777344 11.273438 -16.46875 10.710938 -16.46875 C 10.46875 -16.429688 9.582031 -16.066406 8.375 -15.34375 L 6.765625 -14.375 L 6.804688 -14.375 C 6.605469 -14.296875 6.441406 -14.253906 6.28125 -14.253906 C 6.28125 -14.253906 6.28125 -14.296875 6.242188 -14.335938 L 6.242188 -14.296875 L 6.082031 -14.617188 L 6 -14.617188 C 5.71875 -14.617188 5.597656 -14.898438 5.515625 -14.898438 C 5.476562 -14.898438 5.4375 -14.859375 5.4375 -14.859375 C 5.515625 -15.140625 5.636719 -15.261719 5.917969 -15.867188 C 6.765625 -17.636719 8.09375 -20.496094 7.972656 -22.46875 C 7.851562 -23.675781 6.886719 -24.402344 5.757812 -24.402344 C 3.058594 -24.402344 1.449219 -20.253906 1.570312 -17.476562 C 1.570312 -17.273438 1.652344 -17.113281 1.730469 -16.992188 L 1.773438 -16.792969 C 1.773438 -16.550781 2.214844 -15.945312 2.65625 -15.34375 C 3.101562 -14.777344 3.542969 -14.175781 3.542969 -14.011719 C 3.582031 -13.449219 2.820312 -11.917969 2.253906 -10.871094 C 1.933594 -10.269531 0.683594 -8.132812 0.683594 -8.054688 Z M -15.703125 3.945312 C -18.605469 3.945312 -21.421875 4.148438 -23.636719 4.390625 C -24.199219 4.511719 -24.765625 4.589844 -25.328125 4.589844 C -25.691406 4.628906 -26.617188 4.792969 -29.476562 5.71875 L -31.046875 6.402344 L -28.992188 6.441406 C -28.953125 6.441406 -28.910156 6.484375 -28.871094 6.484375 C -28.792969 6.484375 -28.671875 6.441406 -28.589844 6.402344 C -28.148438 6.320312 -27.339844 6.320312 -26.414062 6.28125 C -25.289062 6.28125 -24 6.242188 -23.355469 6.082031 C -22.507812 5.878906 -21.300781 5.796875 -20.09375 5.71875 C -19.246094 5.675781 -18.402344 5.597656 -17.71875 5.476562 C -17.675781 5.4375 -17.675781 5.4375 -17.636719 5.4375 C -17.554688 5.4375 -17.515625 5.515625 -17.4375 5.515625 C -17.394531 5.558594 -17.394531 5.515625 -17.355469 5.515625 L -16.914062 5.515625 C -12.683594 5.71875 -9.421875 5.960938 -5.675781 7.007812 C -4.628906 7.367188 -3.503906 7.652344 -2.335938 7.972656 C 1.007812 8.898438 4.429688 9.90625 5.234375 11.234375 C 5.839844 12.28125 6.160156 12.964844 6.5625 12.964844 C 7.046875 12.964844 7.851562 12.121094 9.582031 10.148438 L 10.148438 9.503906 C 9.34375 8.132812 7.730469 6.121094 3.746094 5.757812 C 0.683594 4.550781 -2.253906 3.503906 -6.886719 3.503906 C -8.65625 3.503906 -10.628906 3.664062 -13.007812 3.988281 C -13.890625 3.945312 -14.820312 3.945312 -15.703125 3.945312 Z M 6.039062 -21.140625 C 6.160156 -21.101562 6.242188 -20.9375 6.242188 -20.777344 C 6.320312 -19.851562 5.515625 -17.71875 4.628906 -15.785156 L 4.589844 -15.945312 C 4.429688 -16.308594 4.1875 -16.914062 4.105469 -17.515625 C 4.105469 -18.683594 5.316406 -20.816406 6.039062 -21.140625 Z M 6.039062 -21.140625 "/></g></g></g><g fill="#e07c00" fill-opacity="1"><g transform="translate(269.987382, 357.402574)"><g><path d="M 3.542969 -2.777344 L 3.503906 -2.820312 C 3.503906 -2.941406 3.625 -3.34375 3.703125 -3.625 L 3.703125 -3.582031 L 3.746094 -3.824219 C 4.027344 -4.550781 4.226562 -4.992188 4.511719 -5.597656 L 4.871094 -6.363281 C 5.113281 -7.007812 5.355469 -7.570312 5.757812 -8.214844 C 5.960938 -9.101562 6.84375 -9.867188 7.570312 -10.511719 L 8.296875 -11.195312 C 9.179688 -12.160156 11.074219 -12.484375 11.960938 -12.484375 C 12.039062 -12.484375 12.160156 -12.484375 12.242188 -12.441406 C 12.605469 -12.523438 12.765625 -12.804688 12.722656 -13.207031 C 12.644531 -13.972656 10.589844 -15.421875 9.503906 -15.703125 L 9.300781 -15.703125 C 8.414062 -15.703125 6.5625 -15.140625 5.515625 -14.414062 L 5.558594 -14.414062 L 4.953125 -14.132812 C 3.542969 -13.167969 2.417969 -11.757812 1.410156 -10.429688 L 1.046875 -9.625 C -0.203125 -7.570312 -1.167969 -5.035156 -1.046875 -3.222656 C -0.765625 -0.28125 1.851562 0.804688 3.824219 0.804688 C 4.1875 0.804688 4.671875 0.441406 5.195312 0.0390625 L 5.355469 -0.0820312 C 5.839844 -0.121094 6.363281 -0.84375 6.804688 -1.53125 C 6.925781 -1.730469 7.007812 -1.933594 7.207031 -2.132812 L 7.972656 -3.664062 L 7.972656 -3.625 L 8.535156 -4.46875 C 8.535156 -4.390625 8.535156 -4.511719 8.496094 -4.269531 C 8.496094 -4.226562 8.457031 -4.1875 8.457031 -4.148438 L 8.496094 -3.824219 C 8.535156 -3.542969 8.535156 -3.34375 8.535156 -3.140625 C 8.535156 -2.941406 8.535156 -2.65625 8.578125 -2.457031 C 8.578125 -2.09375 8.65625 -1.652344 8.777344 -1.328125 C 9.058594 -0.320312 10.390625 1.289062 11.636719 1.289062 C 11.960938 1.289062 12.242188 1.167969 12.5625 1.046875 L 12.886719 0.925781 C 13.652344 0.886719 15.34375 -0.726562 15.664062 -1.449219 C 15.984375 -1.851562 16.628906 -2.941406 17.273438 -3.988281 C 17.878906 -4.953125 18.441406 -5.878906 18.722656 -6.242188 C 19.410156 -7.449219 19.933594 -8.175781 20.253906 -8.617188 C 20.496094 -8.980469 20.617188 -9.179688 20.617188 -9.300781 C 20.65625 -9.503906 20.65625 -9.625 20.65625 -9.746094 C 20.617188 -10.027344 20.457031 -10.148438 20.253906 -10.148438 C 20.09375 -10.148438 19.890625 -10.066406 19.769531 -9.945312 L 18.804688 -8.414062 C 18.605469 -8.011719 18.199219 -7.488281 18.039062 -7.128906 C 17.757812 -6.484375 17.394531 -6.039062 17.195312 -5.71875 L 15.984375 -3.582031 C 15.222656 -2.335938 13.730469 -0.441406 12.765625 -0.441406 C 12.5625 -0.441406 12.160156 -0.484375 12.160156 -0.605469 C 12.121094 -0.765625 12.28125 -1.128906 12.523438 -1.609375 L 13.007812 -3.058594 C 13.085938 -3.421875 13.207031 -3.746094 13.328125 -4.066406 C 13.53125 -4.550781 13.691406 -5.035156 13.730469 -5.675781 C 13.730469 -6.5625 13.890625 -6.964844 14.011719 -7.207031 C 14.054688 -7.328125 14.09375 -7.488281 14.09375 -7.609375 C 14.09375 -7.691406 14.214844 -8.09375 14.375 -8.496094 C 14.578125 -9.019531 14.820312 -9.625 14.777344 -9.746094 C 14.738281 -10.066406 14.535156 -10.1875 14.335938 -10.347656 L 14.375 -10.347656 L 14.296875 -10.390625 L 14.296875 -10.429688 C 14.296875 -10.46875 14.296875 -10.511719 14.253906 -10.589844 C 13.652344 -11.152344 13.046875 -11.152344 12.28125 -11.152344 C 11.839844 -11.152344 10.390625 -11.074219 10.390625 -10.550781 C 10.269531 -10.226562 10.148438 -9.988281 10.066406 -9.90625 C 9.945312 -9.746094 9.785156 -9.542969 9.625 -9.058594 C 9.503906 -8.617188 9.382812 -8.175781 9.222656 -7.851562 C 8.820312 -7.25 8.414062 -6.402344 7.972656 -5.476562 C 7.367188 -4.269531 6.683594 -2.859375 6.039062 -1.972656 C 5.558594 -1.449219 5.113281 -0.964844 4.347656 -0.964844 L 4.226562 -0.964844 C 3.988281 -0.964844 3.824219 -1.167969 3.785156 -1.570312 C 3.785156 -1.691406 3.746094 -1.773438 3.703125 -1.851562 C 3.664062 -2.011719 3.625 -2.214844 3.625 -2.375 Z M 3.542969 -2.777344 "/></g></g></g><g fill="#e07c00" fill-opacity="1"><g transform="translate(287.825081, 357.402574)"><g><path d="M 2.699219 -23.636719 C 0.925781 -18.683594 -0.523438 -11.839844 -0.523438 -6.523438 L -0.523438 -5.152344 C -0.484375 -4.953125 -0.441406 -4.710938 -0.484375 -4.550781 L -0.402344 -4.226562 L -0.523438 -0.765625 L -0.441406 0.28125 C -0.441406 0.644531 -0.402344 1.046875 -0.363281 1.410156 L -0.320312 1.652344 L -0.320312 1.609375 C -0.242188 1.890625 -0.203125 2.132812 -0.160156 2.417969 L 0.242188 4.75 C 0.203125 4.992188 0.242188 5.234375 0.28125 5.4375 L 0.28125 5.796875 C 1.449219 9.582031 1.933594 11.316406 4.671875 11.917969 C 4.671875 11.917969 4.75 11.878906 4.832031 11.878906 C 6.765625 11.4375 8.253906 9.421875 8.253906 5.839844 C 8.253906 5.113281 8.214844 4.269531 8.09375 3.421875 L 8.011719 1.773438 C 7.8125 1.085938 7.367188 0.484375 6.886719 -0.121094 L 6.765625 -0.402344 C 6.726562 -0.523438 6.523438 -0.683594 6.320312 -0.804688 C 6.203125 -0.925781 6 -1.085938 6 -1.046875 L 5.917969 -1.167969 C 6.320312 -1.367188 6.683594 -1.53125 6.964844 -1.730469 C 7.449219 -2.054688 7.972656 -2.175781 8.335938 -2.496094 L 9.101562 -3.179688 C 9.824219 -3.785156 10.832031 -4.269531 11.152344 -4.832031 L 11.839844 -5.878906 C 12.320312 -6.363281 12.925781 -7.25 13.046875 -7.652344 L 13.246094 -7.933594 L 13.367188 -8.335938 L 13.367188 -8.296875 L 13.933594 -9.058594 L 13.933594 -9.019531 C 14.054688 -9.140625 14.054688 -9.222656 14.054688 -9.34375 C 14.054688 -9.34375 14.054688 -9.382812 14.011719 -9.421875 L 14.09375 -9.542969 C 14.253906 -9.867188 14.335938 -10.066406 14.335938 -10.269531 C 14.296875 -10.46875 14.175781 -10.589844 14.09375 -10.628906 C 13.8125 -10.628906 13.449219 -10.550781 13.207031 -10.226562 C 13.246094 -10.027344 13.167969 -9.867188 13.128906 -9.746094 L 11.074219 -6.726562 C 8.898438 -4.027344 6.644531 -2.941406 5.796875 -2.496094 L 4.953125 -2.296875 C 4.953125 -2.335938 4.953125 -2.335938 4.914062 -2.375 C 4.914062 -2.535156 4.871094 -2.738281 4.871094 -2.898438 C 4.871094 -3.140625 4.871094 -3.382812 4.914062 -3.625 C 4.914062 -3.867188 4.953125 -4.105469 4.953125 -4.347656 C 4.953125 -4.589844 4.953125 -4.792969 4.871094 -4.992188 C 4.871094 -5.035156 4.792969 -5.234375 4.75 -5.316406 C 4.710938 -5.394531 4.75 -5.476562 4.75 -5.558594 L 4.75 -5.71875 L 4.914062 -6.28125 L 5.035156 -7.652344 C 5.035156 -8.335938 5.074219 -9.019531 5.234375 -9.382812 C 5.355469 -9.703125 5.476562 -9.988281 5.597656 -10.1875 C 5.796875 -10.511719 6.039062 -10.914062 6.082031 -11.074219 C 6.242188 -11.515625 6.363281 -11.71875 6.441406 -11.878906 C 6.5625 -12.039062 6.683594 -12.242188 6.804688 -12.484375 L 7.328125 -12.644531 C 7.609375 -13.007812 8.132812 -13.773438 8.738281 -14.296875 L 9.222656 -14.898438 C 9.382812 -15.058594 9.503906 -15.261719 9.625 -15.421875 L 10.066406 -16.027344 L 10.671875 -16.710938 C 10.953125 -17.074219 11.195312 -17.675781 11.4375 -18.242188 C 11.636719 -18.722656 11.839844 -19.207031 12.039062 -19.488281 L 12.402344 -20.292969 L 12.363281 -20.292969 C 12.964844 -21.421875 12.964844 -21.945312 12.964844 -22.308594 C 12.964844 -22.429688 12.964844 -22.589844 13.007812 -22.710938 L 13.691406 -23.152344 C 13.730469 -23.839844 13.851562 -24.320312 13.933594 -24.765625 C 14.011719 -25.167969 14.132812 -25.53125 14.132812 -25.972656 C 14.132812 -26.214844 14.09375 -26.457031 14.011719 -26.699219 C 13.449219 -28.953125 12.121094 -29.597656 10.914062 -29.597656 C 9.625 -29.597656 8.011719 -28.832031 6.925781 -28.1875 C 5.195312 -27.140625 3.542969 -25.730469 2.699219 -23.636719 Z M 6.605469 -19.691406 C 6.644531 -20.054688 6.765625 -20.414062 6.804688 -20.777344 C 7.207031 -22.550781 7.652344 -24.484375 8.414062 -25.851562 C 8.496094 -25.972656 8.578125 -26.132812 8.617188 -26.292969 C 8.617188 -26.335938 8.65625 -26.375 8.65625 -26.414062 L 8.980469 -27.019531 C 9.34375 -27.664062 9.625 -27.945312 10.589844 -28.105469 C 12.199219 -28.105469 12.964844 -26.980469 12.964844 -25.488281 C 12.964844 -23.355469 11.515625 -20.292969 10.269531 -18.484375 C 9.503906 -16.226562 6.082031 -13.449219 5.675781 -13.207031 L 5.636719 -13.128906 L 5.636719 -13.246094 L 5.675781 -13.570312 C 5.878906 -14.375 6 -15.34375 6.082031 -16.308594 C 6.203125 -17.355469 6.320312 -18.605469 6.605469 -19.691406 Z M 6.039062 9.382812 C 5.917969 9.421875 5.71875 9.140625 5.636719 8.820312 L 5.394531 8.054688 L 5.394531 7.890625 C 5.074219 6.726562 4.871094 4.46875 4.871094 2.535156 C 4.871094 1.773438 4.914062 1.085938 4.992188 0.523438 C 5.273438 0.726562 5.515625 0.925781 5.675781 1.25 L 5.757812 1.53125 C 5.960938 1.933594 6.160156 2.335938 6.242188 2.65625 L 6.363281 3.140625 L 6.363281 3.179688 C 6.402344 3.222656 6.402344 3.300781 6.484375 3.382812 L 6.523438 4.066406 L 6.523438 4.148438 C 6.523438 4.226562 6.523438 4.390625 6.5625 4.511719 C 6.5625 4.953125 6.605469 5.394531 6.644531 5.839844 C 6.683594 6.363281 6.726562 6.964844 6.683594 7.367188 L 6.644531 7.890625 C 6.644531 7.933594 6.605469 7.972656 6.605469 8.011719 C 6.523438 8.65625 6.441406 9.300781 6.039062 9.382812 Z M 6.039062 9.382812 "/></g></g></g><g fill="#e07c00" fill-opacity="1"><g transform="translate(298.898143, 357.402574)"><g><path d="M 11.035156 -25.730469 C 10.832031 -25.890625 10.710938 -26.414062 10.589844 -26.859375 L 10.347656 -27.625 L 10.347656 -28.308594 C 10.105469 -30.363281 8.09375 -31.53125 7.367188 -31.53125 C 6.726562 -31.53125 6.5625 -30.121094 6.402344 -28.46875 C 6.320312 -27.625 6.242188 -26.617188 6.082031 -25.691406 C 6.039062 -25.449219 5.917969 -25.125 5.796875 -24.84375 C 5.675781 -24.601562 5.597656 -24.363281 5.515625 -24 L 5.515625 -24.039062 L 4.550781 -21.421875 C 4.105469 -21.460938 3.582031 -21.503906 3.140625 -21.503906 L 1.730469 -21.582031 C -0.605469 -21.785156 -2.375 -22.269531 -3.582031 -22.75 L -4.148438 -22.671875 C -4.269531 -22.792969 -4.347656 -22.832031 -4.429688 -22.832031 C -4.46875 -22.832031 -4.550781 -22.792969 -4.589844 -22.75 C -4.792969 -22.75 -4.871094 -22.589844 -4.871094 -22.429688 C -4.589844 -21.140625 -1.691406 -20.09375 1.773438 -19.730469 L 3.988281 -19.488281 C 3.867188 -18.886719 3.785156 -18.320312 3.703125 -17.757812 C 3.503906 -16.671875 3.34375 -15.503906 3.019531 -14.457031 L 3.019531 -14.496094 C 2.859375 -14.09375 2.738281 -13.53125 2.617188 -13.007812 L 2.457031 -12.320312 C 2.457031 -12.199219 2.496094 -12.082031 2.496094 -11.960938 C 1.488281 -9.222656 0.886719 -6.441406 0.964844 -4.992188 C 1.085938 -4.105469 2.335938 -2.941406 3.140625 -2.214844 C 3.503906 -1.410156 4.105469 -0.804688 5.273438 -0.804688 C 6.320312 -0.804688 7.890625 -2.253906 9.261719 -3.785156 L 10.710938 -5.597656 C 13.128906 -8.617188 14.617188 -11.355469 14.777344 -12.441406 C 14.777344 -12.523438 14.777344 -12.644531 14.699219 -12.765625 L 14.738281 -12.804688 L 14.738281 -12.765625 C 14.777344 -12.886719 14.820312 -13.007812 14.777344 -13.128906 C 14.777344 -13.328125 14.578125 -13.488281 14.414062 -13.488281 C 14.011719 -13.488281 12.644531 -10.871094 12.160156 -9.90625 L 12.160156 -9.945312 L 11.960938 -9.542969 C 11.597656 -8.738281 10.871094 -7.851562 10.226562 -7.046875 C 9.988281 -6.765625 9.703125 -6.484375 9.503906 -6.203125 C 8.335938 -4.792969 6.644531 -3.058594 5.917969 -2.738281 C 5.757812 -2.898438 5.71875 -3.101562 5.71875 -3.382812 C 5.558594 -4.792969 6.363281 -7.167969 7.289062 -9.824219 L 8.375 -13.085938 L 8.296875 -14.011719 C 8.617188 -14.980469 8.859375 -16.226562 9.019531 -17.273438 C 9.101562 -17.960938 9.222656 -18.644531 9.34375 -19.328125 L 12.804688 -19.167969 L 13.007812 -19.167969 C 13.128906 -19.128906 13.207031 -19.128906 13.367188 -19.128906 C 16.347656 -18.804688 19.085938 -17.839844 19.289062 -16.914062 L 19.851562 -16.914062 C 20.09375 -16.914062 20.375 -16.992188 20.292969 -17.394531 C 20.132812 -18.5625 18.199219 -20.375 13.773438 -20.816406 L 13.328125 -20.816406 C 13.207031 -20.777344 13.085938 -20.777344 13.007812 -20.777344 L 9.785156 -20.9375 C 10.308594 -22.710938 10.710938 -24.199219 11.035156 -25.609375 Z M 11.035156 -25.730469 "/></g></g></g></svg>